<?xml version="1.0" encoding="utf-8"?>
<!-- Generator: Adobe Illustrator 27.6.1, SVG Export Plug-In . SVG Version: 6.00 Build 0)  -->
<svg version="1.1" id="Layer_1" xmlns="http://www.w3.org/2000/svg" xmlns:xlink="http://www.w3.org/1999/xlink" x="0px" y="0px"
	 viewBox="0 0 50 50" style="enable-background:new 0 0 50 50;" xml:space="preserve">
<path d="M25,4.6C13.7,4.6,4.6,13.7,4.6,25S13.7,45.4,25,45.4S45.4,36.3,45.4,25S36.3,4.6,25,4.6z M31.7,26.4L21.1,37
	c-0.4,0.4-0.9,0.6-1.4,0.6c-0.5,0-1-0.2-1.4-0.6c-0.8-0.8-0.8-2,0-2.8l9.2-9.2l-9.2-9.2c-0.4-0.4-0.6-0.9-0.6-1.4
	c0-0.5,0.2-1,0.6-1.4c0.7-0.7,2-0.7,2.8,0l10.6,10.6c0.4,0.4,0.6,0.9,0.6,1.4C32.3,25.5,32.1,26,31.7,26.4z"/>
</svg>
